<svg width="35" height="26" viewBox="0 0 35 26" fill="none" xmlns="http://www.w3.org/2000/svg">
<path d="M11.5054 23.1478C11.4864 23.3363 11.5027 23.5332 11.5714 23.7283C11.7392 24.1986 12.133 24.5818 12.5994 24.7263C13.0327 24.8632 13.4639 24.7721 13.5947 24.6298L14.4989 23.6596C14.7605 23.3799 14.8266 22.9329 14.6729 22.4991C14.2945 21.7741 13.7876 21.5125 13.1384 21.3954L11.5054 23.1478ZM10.296 18.2966L8.71576 19.9913C8.3947 20.3406 8.30265 20.8774 8.4819 21.3919C8.67216 21.9353 9.12623 22.3775 9.66971 22.5427C10.1841 22.6968 10.7003 22.577 11.0236 22.2331L12.4866 20.6638C12.8099 20.3155 12.8997 19.7812 12.7205 19.2668C12.5302 18.7207 12.0735 18.2803 11.5327 18.116C11.1011 17.9782 10.5946 17.9729 10.296 18.2966ZM7.16329 15.5079L5.70418 17.0744C5.38268 17.421 5.29283 17.9597 5.47032 18.4758C5.66058 19.0176 6.11465 19.4597 6.65813 19.6249C7.17166 19.7812 7.69311 19.6593 7.85563 19.487L9.47548 17.7487C9.79875 17.3995 9.8886 16.8626 9.70935 16.3491C9.5182 15.8038 9.06413 15.3634 8.52066 15.2C8.02078 15.0371 7.46762 15.182 7.16329 15.5079ZM4.30894 12.4197L2.69172 14.1589C2.36845 14.5072 2.27861 15.0415 2.45786 15.5532C2.64636 16.1011 3.10307 16.5415 3.64655 16.7067C4.16008 16.86 4.68065 16.741 4.8414 16.5666L6.46302 14.8283V14.8265C6.78629 14.4826 6.87613 13.9475 6.69688 13.4339C6.50927 12.8861 6.05255 12.4456 5.50908 12.2822C5.09376 12.1391 4.59125 12.1144 4.30894 12.4197ZM25.3046 2.04736C24.2586 2.63224 22.8047 2.73706 21.3888 2.8388C20.3177 2.9119 19.2127 2.98942 18.4186 3.28274L14.0034 4.91184C13.9738 4.92333 13.9429 4.93116 13.9114 4.93519C13.6982 4.96866 13.5009 4.99729 13.3239 5.02195C12.2488 5.17345 12.1246 5.2197 12.0008 5.53812C11.8881 5.83232 12.0119 6.25644 12.3175 6.6167C12.5668 6.91266 13.5423 7.83666 15.5493 7.36145L18.0636 7.02938C19.4717 6.84792 20.6004 7.76575 21.502 8.50654L28.2637 13.9158L28.269 13.9131C29.6057 13.3538 30.9983 12.6262 32.1821 11.2001L25.3046 2.04736Z" fill="#D5B584"/>
<path d="M16.0006 1.71882C15.5998 1.75582 15.1405 1.80646 14.6586 1.85667C11.9937 2.14118 10.5161 2.25305 9.76427 2.11388L2.84574 11.1191C3.08904 11.3451 3.3026 11.6011 3.48127 11.881C4.05953 11.2891 4.93332 11.0777 5.78421 11.3349C6.61925 11.5868 7.31643 12.2638 7.60798 13.1036C7.73174 13.4591 7.7705 13.8237 7.73879 14.173C8.09275 14.1221 8.45355 14.1495 8.79579 14.2531C9.62862 14.5033 10.3284 15.182 10.6178 16.0218C10.7433 16.3755 10.783 16.7393 10.753 17.0885C11.1071 17.0375 11.4682 17.0658 11.81 17.1713C12.6411 17.4233 13.3378 18.1002 13.6294 18.9357C13.8126 19.4655 13.8196 20.0107 13.6708 20.4996C13.7558 20.5159 13.843 20.5366 13.9297 20.5639C14.6754 20.7951 15.3087 21.4077 15.5813 22.163C15.8412 22.8941 15.7284 23.6622 15.3017 24.2136L16.5291 25.1953C16.8295 25.4336 17.2672 25.4596 17.6759 25.2614C18.119 25.0465 18.4537 24.61 18.5524 24.1216C18.5905 23.9277 18.584 23.7277 18.5334 23.5367L16.9766 22.2912C16.8758 22.209 16.8108 22.0909 16.7954 21.9617C16.7799 21.8326 16.8152 21.7025 16.8938 21.5989C16.9323 21.5481 16.9806 21.5056 17.0358 21.4738C17.091 21.4419 17.152 21.4215 17.2152 21.4136C17.2784 21.4056 17.3426 21.4104 17.404 21.4277C17.4653 21.4449 17.5226 21.4742 17.5724 21.5139L19.4442 23.0139C19.6301 23.1628 20.1625 23.2024 20.651 22.9725C21.1645 22.7272 21.5525 22.2216 21.66 21.6574C21.763 21.1241 21.5979 20.607 21.2306 20.3111L19.5376 18.9564C19.4362 18.875 19.3707 18.7571 19.3552 18.628C19.3397 18.4989 19.3755 18.3688 19.4548 18.2658C19.4928 18.2145 19.5407 18.1715 19.5958 18.1393C19.6508 18.1071 19.7118 18.0864 19.7751 18.0785C19.8384 18.0706 19.9026 18.0755 19.9639 18.0931C20.0252 18.1107 20.0823 18.1405 20.1317 18.1808L22.5928 20.149C22.9627 20.4432 23.4943 20.4837 23.9854 20.2547C24.4945 20.0112 24.8825 19.5064 24.9926 18.9361C25.0957 18.4027 24.9305 17.8875 24.5592 17.5889L22.0973 15.6233C21.9957 15.5408 21.9302 15.422 21.9148 15.2921C21.8993 15.1622 21.9351 15.0314 22.0145 14.9274C22.0534 14.877 22.102 14.8348 22.1574 14.8033C22.2128 14.7718 22.2739 14.7517 22.3371 14.7441C22.4004 14.7364 22.4645 14.7415 22.5258 14.7589C22.5871 14.7763 22.6443 14.8057 22.6941 14.8455C22.6941 14.8455 26.4323 17.8346 26.435 17.8346C26.6208 17.9808 27.1507 18.0222 27.6369 17.7897C28.1513 17.5497 28.5367 17.0449 28.6485 16.4764C28.7498 15.9421 28.5847 15.4233 28.2152 15.13L20.8985 9.27464C20.0591 8.58626 19.1919 7.87323 18.1846 8.00843L15.7209 8.32994C14.0601 8.72896 12.4935 8.33434 11.5876 7.26325C11.0415 6.61803 10.8556 5.82 11.1009 5.17831C11.4449 4.28822 12.1038 4.19617 13.1912 4.04291C13.3537 4.02221 13.5285 3.99666 13.721 3.96628L18.0908 2.35434C18.3749 2.24864 18.6893 2.17554 19.0148 2.11079C17.8913 1.6761 17.077 1.65012 16.0006 1.71882ZM6.5043 0.0122009C5.70846 -0.0481364 4.98177 0.551713 3.93578 1.91393L1.26068 5.39852C0.293077 6.65547 -0.069387 7.43721 0.0107691 8.0996C0.0750702 8.64396 0.45383 9.17818 0.829507 9.47943L2.09835 10.4928L8.9887 1.5246L8.09685 0.810679C7.48379 0.321815 6.98171 0.049196 6.5043 0.0122009ZM28.5992 0.0029513C28.1218 0.0328997 27.6153 0.299794 26.9974 0.781611L26.0959 1.481L32.8906 10.5223L33.7688 9.83925C34.5286 9.24997 34.9161 8.72279 34.987 8.17888C35.0747 7.51825 34.7237 6.73034 33.7715 5.45709L31.14 1.93903C30.1147 0.562724 29.3972 -0.0481372 28.5992 0.0029513Z" fill="#D5B584"/>
</svg>
