<svg width="153" height="153" viewBox="0 0 153 153" fill="none" xmlns="http://www.w3.org/2000/svg">
<path d="M61.4211 147.273L0.0170461 120.835L0 21.7671L61.4722 48.0341L61.4211 147.273Z" fill="#D5B584"/>
<path d="M152.189 120.631L90.7682 147.256L90.8364 47.8127L152.138 21.8013L152.189 120.631Z" fill="#D5B584"/>
<path d="M86.6951 142.04C86.6951 149.199 80.1849 153.409 74.5779 152.727C68.9709 152.045 65.0853 146.727 65.0853 140.114L65.2216 51C72.9418 54.2216 78.208 54.5966 86.5077 51.0511L86.6781 142.023L86.6951 142.04Z" fill="#D5B584"/>
<path d="M64.8126 44.659L14.5202 23.7272C14.452 18.8692 14.6225 14.4885 15.0826 9.71582C34.4258 19.8579 52.0648 28.2272 64.8126 44.659Z" fill="#D5B584"/>
<path d="M137.226 23.7955C120.933 30.716 106.652 37.0569 89.064 43.3808C101.011 27.0342 118.854 19.3467 137.124 9.78418C137.703 13.8921 137.737 18.5455 137.209 23.7955H137.226Z" fill="#D5B584"/>
<path d="M121.411 12.8864C105.902 21.9716 93.9211 31.5 80.3042 42.8522C89.5412 24.0852 103.959 11.2159 121.257 0C121.53 4.24432 121.581 8.8125 121.411 12.8864Z" fill="#D5B584"/>
<path d="M70.3684 40.96C57.2969 30.9373 45.8954 21.818 31.29 13.3123C30.0971 9.49409 30.0459 4.58496 31.2389 0.272461C47.327 10.7384 61.2677 22.3293 70.3855 40.96H70.3684Z" fill="#D5B584"/>
</svg>
