<svg width="150" height="166" viewBox="0 0 150 166" fill="none" xmlns="http://www.w3.org/2000/svg">
<path d="M48.93 150.414C48.8327 144.584 43.8108 140.775 39.0199 140.946C33.3536 141.141 29.5355 145.753 29.499 151.582L29.4261 165.382L0.0364771 165.418L0 31.3363C0 28.5616 3.07636 26.2251 5.54474 26.2251H72.5803C75.3648 26.2251 78.429 28.3304 78.4168 31.3484V165.309L49.1975 165.479L48.93 150.401V150.414ZM33.9616 61.139L33.8886 38.3823L17.2057 38.5527L17.2787 60.8835L33.9494 61.139H33.9616ZM61.2719 60.7861L61.1989 38.4553L44.4796 38.4188L44.7228 61.066L61.284 60.7861H61.2719ZM34.0102 73.3571H17.1814V96.1869H34.0102V73.3571ZM61.357 95.9922L61.0409 73.3936L44.4917 73.783L44.6133 96.0773L61.357 95.9922ZM17.1936 108.466V131.32H33.9859V108.466H17.1936ZM61.357 131.076L61.053 108.624L44.7835 108.539L44.5039 131.076H61.357Z" fill="#D5B584"/>
<path d="M86.3935 70.3262H150V165.491H86.3935V70.3262ZM111.649 111.215L111.479 88.5681L94.8566 88.7263L94.9052 110.996L111.661 111.215H111.649ZM141.598 111.081L141.488 88.6167L124.745 88.8114L124.988 111.118L141.598 111.094V111.081ZM111.588 147.358L111.503 124.699L94.7714 124.821L94.9538 147.224L111.576 147.358H111.588ZM141.622 147.115L141.488 124.784L124.793 124.723L125.024 147.358L141.622 147.115Z" fill="#D5B584"/>
<path d="M112.476 62.3679L94.0905 62.3192L93.9932 38.5768C93.9932 37.6884 94.7106 35.5466 95.0146 34.9016C95.428 34.0497 98.4436 33.4413 99.3312 33.8794L112.123 40.3413L112.476 62.3679Z" fill="#D5B584"/>
<path d="M142.498 62.2462L124.197 62.3801L123.954 37.8831C123.954 36.8001 125.182 34.4636 126.034 34.1472C127.104 33.7577 129.803 33.8794 130.861 34.4392L142.267 40.5482L142.498 62.2462Z" fill="#D5B584"/>
<path d="M101.86 29.4861C103.478 20.2982 93.9567 16.8786 100.717 8.18966C101.751 6.86319 101.751 3.26106 102.177 0.0483398C104.317 1.48433 106.566 3.15154 107.393 4.94043C108.524 7.39865 106.627 12.9114 106.919 15.1505C107.648 20.6146 109.46 27.5511 101.86 29.4861Z" fill="#D5B584"/>
<path d="M131.992 29.5473L131.53 22.1969C123.602 11.9503 132.661 11.8895 132.247 0C134.193 1.30212 137.123 3.79684 137.707 5.82912C138.351 8.04395 136.6 12.9482 136.795 15.0657C137.549 20.1403 139.823 27.0404 131.98 29.5473H131.992Z" fill="#D5B584"/>
</svg>
