<svg width="35" height="34" viewBox="0 0 35 34" fill="none" xmlns="http://www.w3.org/2000/svg">
<path fill-rule="evenodd" clip-rule="evenodd" d="M33.7791 31.5739H1.22093C0.897119 31.5739 0.586571 31.7017 0.357602 31.9292C0.128633 32.1567 0 32.4652 0 32.7869C0 33.1087 0.128633 33.4172 0.357602 33.6447C0.586571 33.8722 0.897119 34 1.22093 34H33.7791C34.1029 34 34.4134 33.8722 34.6424 33.6447C34.8714 33.4172 35 33.1087 35 32.7869C35 32.4652 34.8714 32.1567 34.6424 31.9292C34.4134 31.7017 34.1029 31.5739 33.7791 31.5739Z" fill="#D5B584"/>
<path fill-rule="evenodd" clip-rule="evenodd" d="M21.9768 32.787V2.82833C21.9762 2.36603 21.8617 1.9109 21.6433 1.50269C21.4248 1.09448 21.1092 0.745604 20.7238 0.486519C20.3384 0.227435 19.8951 0.0660229 19.4324 0.0163775C18.9698 -0.0332679 18.502 0.0303628 18.0698 0.201714L5.04656 5.37731C4.51789 5.58743 4.06473 5.95013 3.74555 6.4186C3.42636 6.88708 3.2558 7.43983 3.25586 8.00555V32.787C3.25586 33.4582 3.80284 34 4.47679 34H20.7559C21.0797 34 21.3902 33.8722 21.6192 33.6447C21.8482 33.4172 21.9768 33.1087 21.9768 32.787ZM9.36051 29.1479H15.8721C16.1959 29.1479 16.5065 29.0201 16.7355 28.7926C16.9644 28.5651 17.0931 28.2565 17.0931 27.9348C17.0931 27.6131 16.9644 27.3046 16.7355 27.0771C16.5065 26.8496 16.1959 26.7218 15.8721 26.7218H9.36051C9.0367 26.7218 8.72615 26.8496 8.49718 27.0771C8.26821 27.3046 8.13958 27.6131 8.13958 27.9348C8.13958 28.2565 8.26821 28.5651 8.49718 28.7926C8.72615 29.0201 9.0367 29.1479 9.36051 29.1479ZM9.36051 23.4871H15.8721C16.1959 23.4871 16.5065 23.3593 16.7355 23.1318C16.9644 22.9043 17.0931 22.5957 17.0931 22.274C17.0931 21.9523 16.9644 21.6438 16.7355 21.4163C16.5065 21.1888 16.1959 21.061 15.8721 21.061H9.36051C9.0367 21.061 8.72615 21.1888 8.49718 21.4163C8.26821 21.6438 8.13958 21.9523 8.13958 22.274C8.13958 22.5957 8.26821 22.9043 8.49718 23.1318C8.72615 23.3593 9.0367 23.4871 9.36051 23.4871ZM9.36051 17.8262H15.8721C16.1959 17.8262 16.5065 17.6984 16.7355 17.471C16.9644 17.2435 17.0931 16.9349 17.0931 16.6132C17.0931 16.2915 16.9644 15.983 16.7355 15.7555C16.5065 15.528 16.1959 15.4002 15.8721 15.4002H9.36051C9.0367 15.4002 8.72615 15.528 8.49718 15.7555C8.26821 15.983 8.13958 16.2915 8.13958 16.6132C8.13958 16.9349 8.26821 17.2435 8.49718 17.471C8.72615 17.6984 9.0367 17.8262 9.36051 17.8262ZM9.36051 12.1654H15.8721C16.1959 12.1654 16.5065 12.0376 16.7355 11.8101C16.9644 11.5827 17.0931 11.2741 17.0931 10.9524C17.0931 10.6307 16.9644 10.3221 16.7355 10.0947C16.5065 9.86717 16.1959 9.73937 15.8721 9.73937H9.36051C9.0367 9.73937 8.72615 9.86717 8.49718 10.0947C8.26821 10.3221 8.13958 10.6307 8.13958 10.9524C8.13958 11.2741 8.26821 11.5827 8.49718 11.8101C8.72615 12.0376 9.0367 12.1654 9.36051 12.1654ZM23.6047 8.93068V32.787C23.6047 33.222 23.507 33.6328 23.3312 34H30.5233C30.8471 34 31.1577 33.8722 31.3866 33.6447C31.6156 33.4172 31.7442 33.1087 31.7442 32.787V11.7611C31.7442 11.0104 31.4441 10.2905 30.9098 9.75969C30.3756 9.22889 29.651 8.93068 28.8954 8.93068H23.6047Z" fill="#D5B584"/>
</svg>
