<svg width="35" height="35" viewBox="0 0 35 35" fill="none" xmlns="http://www.w3.org/2000/svg">
<path d="M28.9844 14.2188V12.0312H30.625C30.9258 12.0312 31.1719 11.7852 31.1719 11.4844V9.84375H32.8125V7.65625L17.5 2.1875L2.1875 7.65625V9.84375H3.82812V11.4844C3.82812 11.7852 4.07422 12.0312 4.375 12.0312H6.01562V14.2188H6.5625V25.1562H6.01562V27.3438H4.375C4.07422 27.3438 3.82812 27.5898 3.82812 27.8906V29.5312H3.28125C2.67969 29.5312 2.1875 30.0234 2.1875 30.625V32.8125H32.8125V30.625C32.8125 30.0234 32.3203 29.5312 31.7188 29.5312H31.1719V27.8906C31.1719 27.5898 30.9258 27.3438 30.625 27.3438H28.9844V25.1562H28.4375V14.2188H28.9844ZM17.5 5.46875C18.1016 5.46875 18.5938 5.96094 18.5938 6.5625C18.5938 7.16406 18.1016 7.65625 17.5 7.65625C16.8984 7.65625 16.4062 7.16406 16.4062 6.5625C16.4062 5.96094 16.8984 5.46875 17.5 5.46875ZM8.75 14.2188H9.29688V12.0312H15.8594V14.2188H16.4062V25.1562H15.8594V27.3438H9.29688V25.1562H8.75V14.2188ZM26.25 25.1562H25.7031V27.3438H19.1406V25.1562H18.5938V14.2188H19.1406V12.0312H25.7031V14.2188H26.25V25.1562Z" fill="#D5B584"/>
</svg>
