<svg width="367" height="324" viewBox="0 0 367 324" fill="none" xmlns="http://www.w3.org/2000/svg">
<path fill-rule="evenodd" clip-rule="evenodd" d="M247.695 322.907C258.294 318.875 274.835 310.018 286.805 301.966C301.126 292.332 320.802 273.958 330.601 261.069C348.201 237.918 357.408 214.371 362.699 178.975C366.257 155.174 366.51 149.132 366.838 80.0485C367.187 6.57678 367.506 11.1885 361.688 5.36737C356.075 -0.250764 359.396 0.00176935 291.024 0.00176338C224.987 0.0017576 227.299 -0.133099 221.844 4.03173C220.45 5.09481 218.439 7.44762 217.374 9.2596L215.439 12.555L215.245 75.1527L215.05 137.75L216.599 141.354C218.417 145.584 223.408 150.298 227.178 151.346C228.723 151.775 241.601 152.069 258.984 152.071L288.194 152.076L288.194 156.586C288.194 166.856 285.268 184.285 281.605 195.833C276.736 211.185 269.306 223.563 258.544 234.253C249.764 242.975 239.597 249.902 225.305 256.9C214.854 262.017 213.286 263.287 210.415 268.961C209.654 270.464 209.148 273.143 209.123 275.79C209.087 279.623 209.564 281.18 213.094 288.741C226.529 317.514 227.627 319.339 233.239 322.205C237.354 324.306 243.264 324.592 247.695 322.907ZM35.7298 323.433C39.7023 322.699 58.3813 313.552 68.496 307.387C99.182 288.684 123.135 263.627 137.152 235.568C147.401 215.05 152.479 194.323 156.054 158.395C157.004 148.848 157.277 134.572 157.533 80.7716C157.888 6.49357 158.209 11.1971 152.384 5.36735C146.771 -0.25005 150.087 0.00175106 81.7567 0.00174508C15.1542 0.00173926 17.4888 -0.143189 12.0727 4.32434C10.652 5.49646 8.65432 8.13336 7.6329 10.1842L5.77639 13.9129L5.79217 75.9999C5.80791 136.911 5.83589 138.149 7.26805 141.316C8.94606 145.026 11.5058 147.916 15.0947 150.153C17.5455 151.681 18.3153 151.725 48.4157 152.076L79.2278 152.434L79.0092 158.173C78.4436 172.995 74.8683 190.635 69.9023 203.096C64.7966 215.909 58.6816 225.255 49.402 234.428C40.9567 242.777 32.3344 248.726 18.7998 255.54C5.82514 262.073 2.19883 265.084 0.730107 270.541C-1.00811 277.001 -0.0927086 280.255 8.46222 298.052C13.2368 307.984 17.4738 315.804 19.108 317.701C23.2597 322.519 29.3353 324.615 35.7298 323.433Z" fill="#3E66DF"/>
</svg>
