<svg width="237" height="139" viewBox="0 0 237 139" fill="none" xmlns="http://www.w3.org/2000/svg">
<path d="M59.9605 82.3593C67.7385 95.5856 64.1333 112.188 51.2315 120.258L32.8988 131.736C29.9687 133.561 26.026 140.574 23.1419 137.75L0.774573 115.885C-0.345328 114.796 -0.176569 112.955 0.805262 111.957L8.00024 104.684L16.1157 71.8794C17.5884 65.9107 20.6106 60.6171 24.9828 56.2441L79.6892 1.49754C81.0699 0.116603 82.7574 -0.282318 84.5984 0.316089C89.9984 2.06528 86.2399 11.0107 84.2762 14.371C81.4074 19.2657 77.971 23.5005 74.1971 27.7661L58.3498 45.6263C52.8423 45.4114 47.4422 48.3728 46.2149 53.9733L37.4245 94.0052C37.225 94.9258 38.2376 95.9692 38.9739 96.0306C39.6489 96.0766 40.6308 95.3401 40.8302 94.4502L49.4059 55.1701C50.3417 50.9199 54.4071 48.6029 58.3651 49.3088C62.3231 50.0146 65.2379 54.1267 64.4248 58.4536L59.9605 82.3593Z" fill="#D5B584"/>
<path d="M177.811 82.4818L173.27 57.6095C172.503 53.436 176.001 49.7228 179.805 49.2165C183.61 48.7101 187.476 51.1344 188.381 55.2773L196.957 94.4806C197.141 95.3398 198.23 96.0917 198.905 95.9996C199.534 95.9075 200.531 94.8488 200.362 94.0356L191.802 54.7249C190.743 49.8455 187.046 46.4392 182.122 45.7948C180.664 45.5953 178.854 45.0123 177.826 43.8461L163.467 27.6278C159.739 23.4082 156.303 19.2347 153.495 14.3554C151.654 11.1485 148.31 3.29254 152.099 0.837534C153.587 -0.129124 156.042 -0.482053 157.515 1.00629L213.632 57.1799C217.652 61.2153 220.306 66.4322 221.656 71.8946L229.771 104.715L235.417 110.377C237.426 112.387 237.61 115.502 235.463 117.542L216.639 135.479C214.507 137.505 211.592 138.241 209.276 135.939L204.796 131.505L187.859 121.163C174.513 113.001 169.573 96.3525 177.811 82.4971V82.4818Z" fill="#D5B584"/>
<path d="M153.511 135.234H84.2915L84.3068 120.059C84.3068 106.802 95.2911 95.9388 108.622 95.4631C115.664 95.2023 122.261 95.187 129.302 95.4631C142.833 96.0155 153.48 107.232 153.495 120.566V135.219L153.511 135.234Z" fill="#D5B584"/>
<path d="M114.329 91.3814C103.959 89.1258 96.9326 79.9502 96.8712 69.6699L96.8406 63.425C96.8406 62.888 97.7764 61.7832 98.2826 61.7986C108.086 62.1208 117.106 57.9166 123.089 50.1987C123.565 49.5849 125.037 49.0632 125.528 49.6923C129.609 54.8632 134.457 58.4229 140.777 60.5711L140.854 70.4524C140.962 84.0317 127.906 94.312 114.314 91.3507L114.329 91.3814Z" fill="#D5B584"/>
<path d="M125.13 25.986C127.446 35.7447 124.102 45.488 116.953 51.8096C104.48 62.8418 87.5745 57.272 87.6665 54.2339C88.1881 35.7907 104.419 21.9046 122.69 24.1294C123.549 24.2368 124.899 25.004 125.13 25.986Z" fill="#D5B584"/>
<path d="M148.034 58.3308C138.829 57.7631 130.76 52.5768 126.541 44.5981C129.103 39.0129 129.824 33.2284 128.965 27.4438C128.919 27.1062 129.088 26.2009 129.348 26.1242C129.609 26.0475 130.315 26.0168 130.591 26.1242C142.849 31.157 150.596 43.0791 150.136 56.3668C150.105 57.3488 149.261 58.3768 148.034 58.3001V58.3308Z" fill="#D5B584"/>
<path d="M90.5814 99.3139C88.7405 101.032 86.2246 101.892 83.8467 100.741C86.3626 98.5161 87.6513 96.2912 87.6513 93.1764L87.7126 60.9085C89.2621 59.6196 92.3917 60.264 93.174 61.9518C93.4348 64.3762 93.3888 67.092 93.3888 69.6544C93.3888 78.8454 97.9145 86.2871 105.6 91.9029C99.5099 93.6368 94.7695 95.3859 90.5814 99.3139Z" fill="#D5B584"/>
<path d="M151.9 100.818C148.387 102.951 147.021 96.1839 135.055 92.7469C134.15 92.4861 133.874 90.4761 134.61 89.893C141.023 84.8142 144.337 77.4185 144.383 69.2402L144.429 61.5684L150.12 61.998V93.8977C150.151 97.5495 153.618 99.7744 151.884 100.818H151.9Z" fill="#D5B584"/>
</svg>
