<svg width="35" height="23" viewBox="0 0 35 23" fill="none" xmlns="http://www.w3.org/2000/svg">
<path d="M35 17.4915V21.0833C35 21.2528 34.9342 21.4153 34.8169 21.5351C34.6997 21.6549 34.5408 21.7222 34.375 21.7222H26.875V19.1667C26.875 17.0737 26.2075 15.1417 25.09 13.5649C26.26 12.1453 28.0638 11.2917 30.0763 11.5447C32.9363 11.9051 35 14.5475 35 17.4915ZM9.91 13.5649C8.75027 15.1921 8.1253 17.1534 8.125 19.1667V21.7222H0.625C0.45924 21.7222 0.300269 21.6549 0.183058 21.5351C0.0658481 21.4153 0 21.2528 0 21.0833V17.4915C0 14.5462 2.06375 11.9038 4.9225 11.5434C6.935 11.2904 8.74 12.1453 9.91 13.5649ZM25 19.1667V22.3611C25 22.5306 24.9342 22.6931 24.8169 22.8129C24.6997 22.9327 24.5408 23 24.375 23H10.625C10.4592 23 10.3003 22.9327 10.1831 22.8129C10.0658 22.6931 10 22.5306 10 22.3611V19.1667C10 17.1333 10.7902 15.1833 12.1967 13.7455C13.6032 12.3077 15.5109 11.5 17.5 11.5C19.4891 11.5 21.3968 12.3077 22.8033 13.7455C24.2098 15.1833 25 17.1333 25 19.1667ZM23.0262 8.44483C23.0527 8.53342 23.0476 8.6287 23.0119 8.71383C22.9762 8.79895 22.9122 8.86842 22.8312 8.90994C19.2762 10.6592 15.7225 10.6592 12.1675 8.90994C12.0865 8.86842 12.0225 8.79895 11.9868 8.71383C11.9511 8.6287 11.9461 8.53342 11.9725 8.44483C13.25 4.17194 12.6975 0 17.5 0C22.3025 0 21.75 4.17194 23.0262 8.44483ZM33.68 8.90994C33.6985 8.97005 33.6954 9.03497 33.671 9.09288C33.6467 9.1508 33.6029 9.19788 33.5475 9.22556C30.7662 10.5532 27.9838 10.5532 25.2025 9.22556C25.1469 9.19808 25.1029 9.15103 25.0786 9.09305C25.0542 9.03506 25.0512 8.97004 25.07 8.90994C26.0712 5.69761 25.6313 2.55556 29.375 2.55556C33.1187 2.55556 32.6788 5.69761 33.68 8.90994ZM9.93 8.90994C9.94854 8.97005 9.94536 9.03497 9.92104 9.09288C9.89673 9.1508 9.85289 9.19788 9.7975 9.22556C7.01625 10.5532 4.23375 10.5532 1.4525 9.22556C1.39693 9.19808 1.35293 9.15103 1.32859 9.09305C1.30425 9.03506 1.3012 8.97004 1.32 8.90994C2.32125 5.69761 1.88125 2.55556 5.625 2.55556C9.36875 2.55556 8.92875 5.69761 9.93 8.90994Z" fill="#D5B584"/>
</svg>
